:SAMPLES-PER-SECOND 30
:FULLY-SPECIFIED
:DEGREES
429
root  -20.5112 38.3903 -3.90454 -4.81466 -15.0364 -2.73907
RightUpLeg  -11.7699 -8.07182 -10.7898
RightLeg  51.9942 -3.4065 -5.06103
RightFoot  -1.08779 -1.17944 13.0282
RightToes  -5.82094e-011 -1.98785e-016 -5.10186e-018
Spine  14.2916 1.96802 -7.1497
Spine1  5.3559 -0.838895 4.75172
HEad  20.5973 27.3863 -8.23191
LeftShoulder1  1.29989 -0.555406 -25.8444
LeftArm  -11.1868 28.8817 -50.6528
LeftForeArm  90.2105 -76.1426 -33.442
LeftHand  -0.490276 1.66832 15.2105
RightShoulder  2.98475 5.40481 27.5243
RightArm  1.65918 -15.1565 36.0382
RightForeArm  30.7419 56.9109 14.6199
RightHand  -2.0552 7.47904 -18.708
LeftUpLeg  -7.30791 -4.87099 -5.54376
LeftLeg  28.7482 1.0412 0.967156
LeftFoot  -14.0164 0.231078 6.26893
LeftToes  -8.4584e-011 5.90861e-011 8.40072e-012
430
root  -20.1712 38.4819 -5.19838 -5.21764 -17.0446 -2.39593
RightUpLeg  -6.59215 -6.87365 -11.1238
RightLeg  52.1626 -1.53682 -2.52075
RightFoot  -1.92595 -1.08817 13.0012
RightToes  -5.82094e-011 -1.98785e-016 -5.10186e-018
Spine  13.7905 2.48925 -1.7535
Spine1  5.74321 2.04409 -1.62159
HEad  24.7587 28.3356 -7.30192
LeftShoulder1  1.17638 -0.23723 -25.2466
LeftArm  -11.5633 29.844 -51.8786
LeftForeArm  90.508 -75.4467 -31.2015
LeftHand  -0.461484 1.85847 15.0748
RightShoulder  3.22788 5.94336 28.2228
RightArm  0.0302535 -17.7194 36.3931
RightForeArm  26.3211 54.8024 13.7898
RightHand  -2.13708 7.12417 -19.9543
LeftUpLeg  -8.80789 -3.16104 -5.35736
LeftLeg  27.6627 1.05195 0.945067
LeftFoot  -11.2509 0.0648228 6.06163
LeftToes  -8.4584e-011 5.90861e-011 8.40072e-012
431
root  -19.8323 38.6043 -6.52841 -4.86616 -18.4514 -2.28841
RightUpLeg  -1.72843 -6.99989 -10.7761
RightLeg  50.5644 -0.704743 -1.27925
RightFoot  -1.63828 -1.07541 12.5066
RightToes  -5.82094e-011 -1.98785e-016 -5.10186e-018
Spine  13.0402 3.10268 2.58796
Spine1  6.05337 4.37513 -5.74163
HEad  27.9569 28.9269 -6.62622
LeftShoulder1  0.97323 0.396543 -25.1144
LeftArm  -11.726 30.6805 -52.8197
LeftForeArm  90.5826 -75.2899 -30.7375
LeftHand  -0.456736 1.97106 15.4171
RightShoulder  3.44124 6.61159 28.0503
RightArm  -0.351781 -19.1289 37.5038
RightForeArm  21.5969 51.243 12.316
RightHand  -2.21567 6.91632 -20.9852
LeftUpLeg  -10.7137 -2.32871 -4.92875
LeftLeg  25.7906 1.05763 0.897285
LeftFoot  -8.07527 -0.111471 5.55996
LeftToes  -8.4584e-011 5.90861e-011 8.40072e-012
432
root  -19.5225 38.7001 -7.87145 -4.21422 -18.4625 -2.08483
RightUpLeg  3.21925 -8.76593 -10.5881
RightLeg  47.3332 -1.61698 -2.18404
RightFoot  -0.693294 -1.18404 12.5852
RightToes  -5.82094e-011 -1.98785e-016 -5.10186e-018
Spine  12.0844 3.47572 5.14339
Spine1  6.30487 5.71652 -8.13123
HEad  29.5092 28.5541 -5.81852
LeftShoulder1  0.788189 0.991554 -25.1554
LeftArm  -11.6339 31.4399 -52.8185
LeftForeArm  90.691 -75.8795 -32.5487
LeftHand  -0.540452 0.948534 14.1376
RightShoulder  3.6645 7.10842 28.5835
RightArm  0.669643 -19.8265 37.461
RightForeArm  19.3722 48.457 11.2212
RightHand  -2.37543 7.25088 -21.8814
LeftUpLeg  -12.6246 -2.51343 -4.75267
LeftLeg  23.1971 1.25704 0.927303
LeftFoot  -4.52053 -0.302829 5.54843
LeftToes  -8.4584e-011 5.90861e-011 8.40072e-012
433
root  -19.2115 38.6749 -9.27499 -3.52472 -18.3003 -1.40993
RightUpLeg  7.71392 -10.8117 -11.1454
RightLeg  42.7496 -3.4111 -3.67479
RightFoot  0.305807 -1.5131 14.7926
RightToes  -5.82094e-011 -1.98785e-016 -5.10186e-018
Spine  11.4332 4.02225 6.0027
Spine1  6.20024 6.63085 -9.2471
HEad  29.0235 27.885 -5.61981
LeftShoulder1  0.6936 1.27422 -24.8976
LeftArm  -12.1814 32.9926 -53.2302
LeftForeArm  94.8535 -77.489 -37.7758
LeftHand  -0.553586 0.419213 12.9613
RightShoulder  3.73512 7.34984 28.4571
RightArm  2.29714 -20.4033 37.3746
RightForeArm  19.8041 47.4702 10.7811
RightHand  -2.36839 7.45952 -21.4685
LeftUpLeg  -14.7503 -2.53415 -5.06942
LeftLeg  20.48 1.15523 0.818213
LeftFoot  -1.02971 -0.491531 5.49508
LeftToes  -8.4584e-011 5.90861e-011 8.40072e-012
434
root  -18.8431 38.5876 -10.7684 -2.8137 -18.8654 -0.862503
RightUpLeg  11.4485 -12.4719 -11.5721
RightLeg  37.0947 -4.15275 -3.64658
RightFoot  1.88451 -1.89942 16.3343
RightToes  -5.82094e-011 -1.98785e-016 -5.10186e-018
Spine  11.3195 4.60038 7.08071
Spine1  6.00717 7.74884 -10.6663
HEad  26.7102 26.6599 -6.10905
LeftShoulder1  0.77064 0.971151 -24.1622
LeftArm  -12.5216 33.6701 -53.3382
LeftForeArm  99.2603 -78.6337 -42.7165
LeftHand  -0.527173 0.726927 13.1357
RightShoulder  3.82572 7.59824 28.5034
RightArm  3.211 -20.5005 36.8958
RightForeArm  21.4047 47.9963 10.8791
RightHand  -2.15797 7.51568 -19.5614
LeftUpLeg  -16.8003 -1.7256 -5.22886
LeftLeg  17.3935 0.838374 0.614354
LeftFoot  2.72116 -0.725857 5.73849
LeftToes  -8.4584e-011 5.90861e-011 8.40072e-012
435
root  -18.413 38.4563 -12.3449 -2.04601 -19.7014 -0.536126
RightUpLeg  14.2213 -13.5121 -11.4933
RightLeg  30.9422 -4.29702 -3.01244
RightFoot  2.06892 -2.2014 18.6311
RightToes  -5.82094e-011 -1.98785e-016 -5.10186e-018
Spine  12.0669 4.68617 8.14139
Spine1  5.05058 8.25726 -11.4153
HEad  23.0951 26.334 -7.79234
LeftShoulder1  0.851763 0.739893 -24.5678
LeftArm  -13.5997 33.2842 -52.6337
LeftForeArm  105.152 -79.6169 -47.9796
LeftHand  -0.622424 -0.0451003 13.3692
RightShoulder  3.81249 7.63605 28.2617
RightArm  4.21501 -18.9332 36.6163
RightForeArm  22.6063 48.5656 11.0262
RightHand  -2.05941 7.79077 -18.32
LeftUpLeg  -18.7975 -1.96461 -5.01274
LeftLeg  13.9231 1.74082 0.701419
LeftFoot  6.84198 -0.897323 5.36784
LeftToes  -8.4584e-011 5.90861e-011 8.40072e-012
436
root  -17.9844 38.2858 -13.9856 -1.31872 -20.714 -0.249616
RightUpLeg  15.6002 -12.4818 -9.97912
RightLeg  25.105 -5.27419 -2.8969
RightFoot  -4.82821 -1.09666 19.4588
RightToes  -5.82094e-011 -1.98785e-016 -5.10186e-018
Spine  12.8287 4.52449 8.87198
Spine1  4.25136 8.3191 -11.4855
HEad  18.7844 25.7754 -9.44109
LeftShoulder1  1.00912 0.276108 -25.0592
LeftArm  -14.9469 32.0591 -51.5154
LeftForeArm  110.674 -80.4585 -54.4036
LeftHand  -0.617977 0.128737 13.7048
RightShoulder  3.92238 8.01629 28.0755
RightArm  4.93215 -16.3793 36.2115
RightForeArm  22.3117 49.2378 11.3364
RightHand  -2.05995 7.59981 -18.5806
LeftUpLeg  -20.3907 -2.6051 -4.32014
LeftLeg  9.67009 3.25288 0.583414
LeftFoot  10.6141 -0.776109 3.67809
LeftToes  -8.4584e-011 5.90861e-011 8.40072e-012
437
root  -17.4857 38.0418 -15.7645 -0.547737 -21.4256 -0.426575
RightUpLeg  15.0473 -10.6931 -7.42503
RightLeg  20.6572 -7.36407 -3.287
RightFoot  -14.9724 0.520041 21.3356
RightToes  -5.82094e-011 -1.98785e-016 -5.10186e-018
Spine  14.8427 3.86166 9.80348
Spine1  2.50072 7.78763 -11.4065
HEad  14.2875 25.3242 -11.0175
LeftShoulder1  1.13468 -0.117522 -25.1275
LeftArm  -16.713 30.8343 -50.835
LeftForeArm  121.097 -81.4142 -65.2635
LeftHand  -0.642513 0.294416 14.6812
RightShoulder  4.02538 8.36531 27.9378
RightArm  4.79074 -13.7642 36.0043
RightForeArm  23.0718 50.2897 11.7523
RightHand  -2.122 7.76357 -18.8947
LeftUpLeg  -22.1046 -3.51203 -3.08677
LeftLeg  5.64134 5.34465 0.503642
LeftFoot  12.3407 -0.341137 1.24858
LeftToes  -8.4584e-011 5.90861e-011 8.40072e-012
438
root  -16.845 37.8207 -17.6859 -0.286435 -22.1798 -0.889455
RightUpLeg  11.9025 -10.1574 -5.50839
RightLeg  20.8984 -9.68634 -4.27077
RightFoot  -22.1267 1.43831 16.6031
RightToes  -5.82094e-011 -1.98785e-016 -5.10186e-018
Spine  17.4277 2.88215 11.3414
Spine1  2.0363 7.28214 -11.578
HEad  8.64609 24.9159 -13.5248
LeftShoulder1  1.27788 -0.546522 -25.3637
LeftArm  -18.7748 28.8206 -50.206
LeftForeArm  139.558 -82.1451 -83.8929
LeftHand  -0.714636 -0.152159 15.0401
RightShoulder  3.93724 8.45376 26.9118
RightArm  4.15521 -11.0587 36.127
RightForeArm  22.6267 52.4337 12.8238
RightHand  -2.11555 7.49937 -19.2043
LeftUpLeg  -23.4327 -3.08746 -1.7763
LeftLeg  2.12702 6.41033 0.0643362
LeftFoot  10.5434 0.158087 -1.18455
LeftToes  -8.4584e-011 5.90861e-011 8.40072e-012
439
root  -16.1417 37.8015 -19.4317 0.0904057 -21.7191 -2.39283
RightUpLeg  9.34964 -11.7705 -3.63763
RightLeg  20.573 -10.129 -4.38604
RightFoot  -24.6752 1.43826 13.6161
RightToes  -5.82094e-011 -1.98785e-016 -5.10186e-018
Spine  18.9544 1.26739 14.0334
Spine1  2.9371 6.31486 -11.2297
HEad  3.06945 24.1318 -15.9865
LeftShoulder1  1.42922 -0.971352 -25.7561
LeftArm  -20.5616 26.5044 -49.5945
LeftForeArm  158.055 -81.9676 -103.177
LeftHand  -0.699988 0.320449 16.0892
RightShoulder  3.78186 8.39308 25.7273
RightArm  2.98915 -9.05966 36.0493
RightForeArm  22.9831 54.7622 14.0522
RightHand  -2.18942 7.40989 -19.9825
LeftUpLeg  -23.7377 -2.27852 -0.340627
LeftLeg  -1.54617 7.51828 -0.323136
LeftFoot  5.17818 0.339602 -2.49252
LeftToes  -8.4584e-011 5.90861e-011 8.40072e-012
440
root  -15.504 38.0246 -20.8943 1.04754 -20.1672 -3.85806
RightUpLeg  6.60464 -13.9726 -1.78968
RightLeg  19.9998 -10.25 -4.31447
RightFoot  -23.6862 1.17397 12.2903
RightToes  -5.82094e-011 -1.98785e-016 -5.10186e-018
Spine  18.3835 0.128631 15.8497
Spine1  4.17656 5.05971 -9.37709
HEad  -0.0877103 23.1538 -17.5566
LeftShoulder1  1.73297 -1.83568 -26.3208
LeftArm  -21.8821 24.9361 -49.3207
LeftForeArm  171.504 -81.3161 -116.182
LeftHand  -0.626374 1.17712 17.2144
RightShoulder  3.70546 8.18262 25.6476
RightArm  2.58173 -8.74326 34.4572
RightForeArm  23.4261 56.1225 14.813
RightHand  -2.14523 7.53286 -19.4386
LeftUpLeg  -23.8311 -2.02864 0.723627
LeftLeg  -4.912 11.5776 -0.509182
LeftFoot  -2.00787 0.229025 -2.79416
LeftToes  -8.4584e-011 5.90861e-011 8.40072e-012
441
root  -14.9628 38.3666 -22.1683 1.79944 -18.9139 -4.56753
RightUpLeg  3.76491 -14.7536 -0.264392
RightLeg  19.5749 -11.1742 -4.58594
RightFoot  -21.0621 0.838973 11.5228
RightToes  -5.82094e-011 -1.98785e-016 -5.10186e-018
Spine  17.7446 -0.203369 15.2568
Spine1  4.58456 3.86555 -6.52115
HEad  -0.262119 22.5803 -17.5504
LeftShoulder1  1.75765 -1.87015 -26.5653
LeftArm  -21.9691 24.1363 -49.8081
LeftForeArm  -179.962 -80.7096 -123.554
LeftHand  -0.64865 1.14284 17.6896
RightShoulder  3.65206 7.74748 26.4301
RightArm  3.06497 -9.52054 32.7122
RightForeArm  23.4443 54.6471 13.9626
RightHand  -2.29235 8.6788 -19.0945
LeftUpLeg  -24.0467 -0.898641 1.48487
LeftLeg  -4.75641 18.6177 -1.16999
LeftFoot  -5.37646 0.229086 -3.82812
LeftToes  -8.4584e-011 5.90861e-011 8.40072e-012
442
root  -14.5594 38.7581 -23.2628 1.24024 -18.344 -3.15919
RightUpLeg  2.03014 -13.8813 -0.893131
RightLeg  18.9813 -12.8395 -5.04658
RightFoot  -18.5757 0.574031 11.0539
RightToes  -5.82094e-011 -1.98785e-016 -5.10186e-018
Spine  18.5903 0.393603 10.9456
Spine1  3.0542 2.74258 -2.68463
HEad  1.65863 22.222 -15.8822
LeftShoulder1  1.59111 -1.53832 -25.3927
LeftArm  -21.1611 24.6079 -51.1534
LeftForeArm  -173.092 -79.8967 -130.041
LeftHand  -0.738025 0.561511 17.716
RightShoulder  3.53544 7.22673 26.9472
RightArm  3.31865 -12.1591 32.5214
RightForeArm  19.5824 51.0742 12.3963
RightHand  -2.11353 7.00485 -19.9101
LeftUpLeg  -23.0873 0.126051 0.762148
LeftLeg  -0.765762 21.9656 -0.980663
LeftFoot  -0.4964 0.271905 -2.77586
LeftToes  -8.4584e-011 5.90861e-011 8.40072e-012
443
root  -14.1768 39.1388 -24.2077 0.117174 -17.855 -1.5831
RightUpLeg  1.68421 -11.8356 -1.81368
RightLeg  17.3714 -15.5517 -5.51795
RightFoot  -15.9115 0.325022 10.8347
RightToes  -5.82094e-011 -1.98785e-016 -5.10186e-018
Spine  19.2978 0.781481 7.25264
Spine1  1.86687 1.78603 0.0721736
HEad  2.7892 21.5094 -13.9959
LeftShoulder1  1.61602 -1.87829 -23.779
LeftArm  -19.7786 25.8367 -51.5305
LeftForeArm  -165.164 -77.8811 -140.344
LeftHand  -0.652937 0.861074 16.7667
RightShoulder  3.41434 6.65374 27.6349
RightArm  3.29648 -15.5153 32.9873
RightForeArm  16.3032 47.4081 11.0253
RightHand  -1.92529 5.89394 -19.9168
LeftUpLeg  -22.0995 2.36509 -0.581991
LeftLeg  7.0276 13.9204 0.605026
LeftFoot  -2.12055 0.171014 -1.97669
LeftToes  -8.4584e-011 5.90861e-011 8.40072e-012
